# xmcd
#
# Track frame offsets:
#	150
#	18637
#	34656
#	53870
#	69320
#	88037
#	102211
#	121867
#	135375
#	153907
#	172827
#
# Disc length: 2573 seconds
#
# Revision: 0
# Processed by: cddbd v1.5.1PL0 Copyright (c) Steve Scherf et al.
# Submitted via: EasyCDDAExtractor 8.0.1.2
#
DISCID=800a0b0b
DTITLE=Brian Jay Cline  - The Big Issue
DYEAR=2002
DGENRE=Singer/Songwriter
TTITLE0=Merry Go Round
TTITLE1=One More Broken Heart
TTITLE2=Much Ado About Nothing
TTITLE3=Roamin' Holiday
TTITLE4=Just A Matter Of Time
TTITLE5=Touch And Go
TTITLE6=Upside Down  Inside Out
TTITLE7=Blame It On Monday
TTITLE8=Happy Days
TTITLE9=All Roads Lead To You
TTITLE10=She's My Headache
EXTD=
EXTT0=
EXTT1=
EXTT2=
EXTT3=
EXTT4=
EXTT5=
EXTT6=
EXTT7=
EXTT8=
EXTT9=
EXTT10=
PLAYORDER=
